<svg xmlns="http://www.w3.org/2000/svg" xmlns:xlink="http://www.w3.org/1999/xlink" width="32" height="32" viewBox="0 0 32 32"><defs><clipPath id="a"><rect width="32" height="32" fill="none"/></clipPath><clipPath id="c"><rect width="32" height="32"/></clipPath></defs><g id="b" clip-path="url(#c)"><g clip-path="url(#a)"><rect width="32" height="32" fill="none"/><g transform="translate(0 -0.001)"><g transform="translate(0 0)"><g transform="translate(0 0)"><path d="M792.291,1119.088a18.168,18.168,0,0,0-3.531,5.42s-2.461-4.066-4.6-5.456c-3.388-2.176-4.851-2.211-4.851-2.211v1.712a10.03,10.03,0,0,1,4.173,1.641,30.2,30.2,0,0,1,5.279,6.6s2.1-4.671,4.136-6.276a8.1,8.1,0,0,1,5.313-1.962v-1.712A10.715,10.715,0,0,0,792.291,1119.088Z" transform="translate(-766.113 -1097.151)" fill="#163e9c"/><path d="M342.549,829.259a18.449,18.449,0,0,0-6.349-1.534s3.1-3.6,3.745-6.062c1-3.852.535-5.243.535-5.243l-1.641.571a10.183,10.183,0,0,1-.214,4.423,29.722,29.722,0,0,1-4.637,7.061s5.206.464,7.382,1.819a7.909,7.909,0,0,1,3.638,4.28L346.65,834A11.349,11.349,0,0,0,342.549,829.259Z" transform="translate(-329.353 -802.51)" fill="#163e9c"/><path d="M103.581,511.76c4.03-.321,5.206-1.213,5.206-1.213l-1.07-1.355A10.254,10.254,0,0,1,103.4,510.4a31,31,0,0,1-8.309-2s1.248,4.992.642,7.453a7.825,7.825,0,0,1-2.96,4.814l1.07,1.355a10.833,10.833,0,0,0,3.243-5.386,18.322,18.322,0,0,0-.606-6.419S100.977,511.974,103.581,511.76Z" transform="translate(-92.775 -500.417)" fill="#163e9c"/><path d="M375.486,97.34a18.74,18.74,0,0,0,5.955-2.639s-.214,4.708.856,7.061c1.641,3.638,2.853,4.457,2.853,4.457l.963-1.427a9.8,9.8,0,0,1-2.6-3.638,29.179,29.179,0,0,1-.785-8.381s-4.387,2.782-6.954,3.032a8.024,8.024,0,0,1-5.563-1.177l-.963,1.462A11.67,11.67,0,0,0,375.486,97.34Z" transform="translate(-363.931 -92.774)" fill="#163e9c"/><path d="M1118.723,176.262a9.851,9.851,0,0,1,2.64-3.6,31.488,31.488,0,0,1,7.81-3.46s-4.1-3.174-5.172-5.493a7.891,7.891,0,0,1-.678-5.563l-1.712-.428a10.627,10.627,0,0,0,.785,6.205,18.8,18.8,0,0,0,4.458,4.708s-4.564,1.355-6.492,3.1c-2.96,2.711-3.353,4.1-3.353,4.1Z" transform="translate(-1097.326 -156.468)" fill="#163e9c"/></g></g></g></g></g></svg>